PathFileType	4	(X/Y/Z)	/Users/itak/Documents/Research/Walk-IL/dataset/trc/00230_00009.trc
DataRate	CameraRate	NumFrames	NumMarkers	Units	OrigDataRate	OrigDataStartFrame	OrigNumFrames
100.000000	100.000000	4	53	mm	100.000000	99	798
Frame#	Time	RPSI			LPSI			L3			STRN			T10			C7			CLAV			RBAK			LBAK			LSHO			LUPA			LAEL			LAOL			LWTS			LWPS			LFRA			LIFD			LHPS			LHTS			RSHO			RUPA			RAEL			RAOL			RWTS			RWPS			RFRA			RIFD			RHTS			RHPS			RBHD			LFHD			RFHD			LBHD			LHIP			RHIP			RASI			LASI			LKNE			LTHI			LANK			LTIP			LTOE			LMT1			LMT5			LHEE			RKNE			RTHI			RANK			RTIP			RTOE			RMT1			RMT5			RHEE			
		X1	Y1	Z1	X2	Y2	Z2	X3	Y3	Z3	X4	Y4	Z4	X5	Y5	Z5	X6	Y6	Z6	X7	Y7	Z7	X8	Y8	Z8	X9	Y9	Z9	X10	Y10	Z10	X11	Y11	Z11	X12	Y12	Z12	X13	Y13	Z13	X14	Y14	Z14	X15	Y15	Z15	X16	Y16	Z16	X17	Y17	Z17	X18	Y18	Z18	X19	Y19	Z19	X20	Y20	Z20	X21	Y21	Z21	X22	Y22	Z22	X23	Y23	Z23	X24	Y24	Z24	X25	Y25	Z25	X26	Y26	Z26	X27	Y27	Z27	X28	Y28	Z28	X29	Y29	Z29	X30	Y30	Z30	X31	Y31	Z31	X32	Y32	Z32	X33	Y33	Z33	X34	Y34	Z34	X35	Y35	Z35	X36	Y36	Z36	X37	Y37	Z37	X38	Y38	Z38	X39	Y39	Z39	X40	Y40	Z40	X41	Y41	Z41	X42	Y42	Z42	X43	Y43	Z43	X44	Y44	Z44	X45	Y45	Z45	X46	Y46	Z46	X47	Y47	Z47	X48	Y48	Z48	X49	Y49	Z49	X50	Y50	Z50	X51	Y51	Z51	X52	Y52	Z52	X53	Y53	Z53	

100	0.99	0.69222092628479	1046.71142578125	853.8328247070312	-3.937603712081909	1047.15869140625	732.9251098632812	-2.505853414535522	1141.390258789062	776.957763671875	259.6448974609375	1302.867919921875	745.9396362304688	3.353284358978271	1267.69091796875	782.921630859375	91.2109375	1521.978759765625	770.2545776367188	246.6483764648438	1423.180786132812	750.733642578125	10.15988922119141	1392.052368164062	856.3204956054688	54.17292785644531	1487.859741210938	663.5756225585938	135.6034698486328	1480.610473632812	596.0057373046875	74.04718780517578	1373.405029296875	518.0693359375	37.87911224365234	1170.032958984375	479.4550476074219	-28.00520515441895	1163.395385742188	538.0361938476562	94.66475677490234	920.2883911132812	514.1390991210938	64.2239990234375	917.27587890625	436.1844177246094	40.77519607543945	1061.88623046875	457.4247741699219	50.11676406860352	729.9909057617188	485.8749694824219	59.95500564575195	827.532958984375	431.0632019042969	101.5161285400391	814.8023681640625	483.8152770996094	167.8544616699219	1473.372924804688	930.652587890625	153.8066558837891	1410.360229492188	1000.542663574219	120.0686492919922	1133.351318359375	1053.392211914062	73.52127838134766	1123.017944335938	971.2901000976562	245.5260925292969	914.6956787109375	1001.12451171875	201.2658538818359	902.60009765625	1071.5947265625	145.6452789306641	1063.938232421875	1064.863159179688	256.6546630859375	720.1586303710938	998.6776733398438	283.9071655273438	793.0679321289062	1014.379699707031	237.7579956054688	794.6405639648438	1069.627197265625	156.6244812011719	1672.051635742188	817.1851806640625	337.4007568359375	1695.264770507812	681.427490234375	357.246826171875	1695.612670898438	779.4862670898438	173.6531524658203	1673.355224609375	677.5698852539062	86.39424133300781	978.4722290039062	586.8728637695312	106.5482940673828	1015.316833496094	953.9817504882812	200.4643859863281	1053.549682617188	905.6395874023438	190.7840881347656	1021.956237792969	625.91845703125	125.9270553588867	497.14990234375	661.5923461914062	121.6307678222656	639.2722778320312	624.3057250976562	3.6722412109375	34.68574905395508	720.5856323242188	60.01301956176758	274.2403564453125	681.83349609375	223.6544189453125	42.23628997802734	750.247802734375	162.6255645751953	36.66956329345703	801.8057250976562	129.4561309814453	36.08053588867188	688.27001953125	-50.92162704467773	40.76953887939453	780.3145141601562	267.9634399414062	541.171142578125	927.3963012695312	211.2222137451172	805.1392822265625	960.1473999023438	149.8260803222656	58.64186477661133	953.9454345703125	272.6301879882812	417.4484558105469	920.360595703125	350.7374572753906	82.08565521240234	894.9427490234375	294.4755249023438	66.05692291259766	856.5230712890625	260.2643432617188	64.42745971679688	970.231689453125	83.10921478271484	50.52235794067383	902.0670166015625	
101	1	3.30195164680481	1046.869750976562	853.8397216796875	-1.757562041282654	1047.21533203125	732.9441528320312	-0.05032170191407204	1141.527099609375	776.796630859375	262.3599548339844	1302.49169921875	744.939208984375	6.076954364776611	1267.890502929688	782.633056640625	94.45915985107422	1521.952514648438	769.8679809570312	249.6297607421875	1422.8251953125	749.8659057617188	13.3123197555542	1392.191040039062	855.9844360351562	57.09014129638672	1488.042114257812	663.279296875	138.2972412109375	1480.701293945312	595.5565795898438	76.353759765625	1373.921752929688	517.4816284179688	39.88591384887695	1170.615112304688	478.3051147460938	-26.34716606140137	1164.135375976562	536.521484375	96.38385772705078	920.926513671875	513.4208984375	66.30292510986328	917.7180786132812	435.3402709960938	42.83047103881836	1062.433227539062	456.3334655761719	52.27689743041992	730.5409545898438	485.5044860839844	62.09976959228516	827.9346313476562	430.4161376953125	103.563346862793	815.4281616210938	483.3332214355469	171.3583984375	1473.065551757812	930.008056640625	157.2112579345703	1410.099243164062	999.890869140625	122.4858779907227	1133.33642578125	1053.095336914062	75.91482543945312	1123.045532226562	970.899169921875	247.6193695068359	914.4864501953125	1000.974731445312	203.2527618408203	902.4343872070312	1071.410400390625	147.9149780273438	1063.868896484375	1064.623046875	258.6296997070312	719.9500122070312	998.5691528320312	285.8913269042969	792.8438720703125	1014.294921875	239.6716461181641	794.4475708007812	1069.496948242188	160.6875	1671.873413085938	817.0421142578125	340.6878051757812	1694.648681640625	680.1513061523438	361.1783752441406	1694.824951171875	778.0574951171875	176.8447113037109	1673.303588867188	677.3270263671875	87.92039489746094	978.2444458007812	586.5568237304688	109.6259307861328	1015.565551757812	953.5514526367188	203.303466796875	1053.6259765625	904.806640625	192.5074462890625	1021.641967773438	625.1792602539062	126.4130630493164	496.9598693847656	661.3742065429688	122.4677124023438	639.070068359375	624.0510864257812	3.670385599136353	34.68854141235352	720.601318359375	60.16477203369141	274.1868896484375	681.8157348632812	223.640625	42.23802947998047	750.2302856445312	162.6361541748047	36.63596343994141	801.7889404296875	129.4637756347656	36.05389785766602	688.268798828125	-50.94927597045898	40.7805061340332	780.3656005859375	273.1970520019531	542.211669921875	925.8421630859375	215.0604248046875	805.7850952148438	959.4049072265625	162.4230194091797	57.87480163574219	952.9524536132812	279.410888671875	418.6049499511719	918.71875	362.5122680664062	83.92568969726562	892.433349609375	306.1415100097656	67.28736114501953	854.3820190429688	272.8929138183594	64.94166564941406	968.3826904296875	95.44557189941406	49.05796432495117	901.6069946289062	
102	1.01	5.997776508331299	1046.9970703125	853.8592529296875	0.5032100677490234	1047.247802734375	732.9913330078125	2.471834421157837	1141.638305664062	776.6599731445312	265.1511840820312	1302.087036132812	743.935546875	8.873863220214844	1268.068969726562	782.37548828125	97.78888702392578	1521.904663085938	769.5109252929688	252.6867370605469	1422.440185546875	748.9973754882812	16.55733489990234	1392.318725585938	855.6990966796875	60.06396102905273	1488.197265625	663.0213623046875	141.0432891845703	1480.762939453125	595.1264038085938	78.73561096191406	1374.37451171875	516.9415283203125	42.05800247192383	1171.101684570312	477.2393493652344	-24.48106002807617	1164.739501953125	535.1425170898438	98.5589599609375	921.5523071289062	512.7696533203125	68.64570617675781	918.0484008789062	434.6239013671875	45.09673690795898	1062.879516601562	455.3435974121094	55.18620300292969	730.9937133789062	485.4253234863281	64.66476440429688	828.216552734375	429.9761962890625	106.1871566772461	816.0573120117188	482.9517822265625	174.9942779541016	1472.717041015625	929.3788452148438	160.7713928222656	1409.785278320312	999.2462768554688	125.0931777954102	1133.2734375	1052.772094726562	78.46970367431641	1123.014282226562	970.48291015625	249.7582702636719	914.1378173828125	1000.827758789062	205.3086700439453	902.1893310546875	1071.252075195312	150.3570709228516	1063.746337890625	1064.36474609375	260.4866333007812	719.5895385742188	998.5379028320312	287.8496398925781	792.4522094726562	1014.241455078125	241.5612182617188	794.1407470703125	1069.4140625	164.8363800048828	1671.667602539062	816.9313354492188	344.0321044921875	1694.013305664062	678.8904418945312	365.2032470703125	1693.99755859375	776.6351928710938	180.1096954345703	1673.231079101562	677.119140625	89.52034759521484	978.0107421875	586.2495727539062	112.7985000610352	1015.777893066406	953.134521484375	206.2234649658203	1053.682006835938	903.9925537109375	194.2911682128906	1021.315246582031	624.462158203125	126.9945068359375	496.7618103027344	661.1926879882812	123.4106597900391	638.85546875	623.8251342773438	3.671795845031738	34.6939582824707	720.6185302734375	60.37078475952148	274.120361328125	681.8056640625	223.6318817138672	42.24068450927734	750.2144165039062	162.6486663818359	36.60133361816406	801.7734985351562	129.4773406982422	36.02546691894531	688.2763061523438	-50.96758270263672	40.79079437255859	780.4199829101562	278.4840393066406	543.23095703125	924.2526245117188	219.0046997070312	806.4078979492188	958.648193359375	175.3366394042969	57.13724136352539	951.8546142578125	286.2702026367188	419.7620849609375	917.0044555664062	374.5270385742188	85.84635925292969	889.7543334960938	318.0758972167969	68.60659027099609	852.1146240234375	285.8045959472656	65.52883911132812	966.37060546875	108.0813369750977	47.60853958129883	901.0418090820312	
103	1.02	8.784919738769531	1047.087036132812	853.893798828125	2.842530488967896	1047.25	733.0624389648438	5.07091236114502	1141.719482421875	776.5552978515625	268.0200500488281	1301.6552734375	742.9359741210938	11.74859142303467	1268.219604492188	782.1550903320312	101.1987838745117	1521.83203125	769.1806030273438	255.8165435791016	1422.026245117188	748.133544921875	19.89628028869629	1392.42578125	855.4609985351562	63.09427261352539	1488.319946289062	662.797607421875	143.8433990478516	1480.786499023438	594.7112426757812	81.19514465332031	1374.7490234375	516.4502563476562	44.3935432434082	1171.481811523438	476.2688903808594	-22.39763259887695	1165.19287109375	533.9192504882812	101.1891098022461	922.1455078125	512.1870727539062	71.27040863037109	918.2686157226562	434.029541015625	47.57389450073242	1063.216796875	454.46044921875	58.78304672241211	731.3482666015625	485.591796875	67.6527099609375	828.3848876953125	429.7208557128906	109.357780456543	816.66796875	482.6613464355469	178.7555694580078	1472.33056640625	928.764404296875	164.4813690185547	1409.422729492188	998.6097412109375	127.8981170654297	1133.160766601562	1052.421630859375	81.19288635253906	1122.929321289062	970.0467529296875	251.9460601806641	913.6466674804688	1000.681335449219	207.4434356689453	901.8670043945312	1071.118530273438	152.9754943847656	1063.56982421875	1064.0859375	262.2150573730469	719.0743408203125	998.5819702148438	289.7765808105469	791.8910522460938	1014.214660644531	243.4414978027344	793.7246704101562	1069.374389648438	169.0777130126953	1671.435302734375	816.8430786132812	347.4385070800781	1693.3544921875	677.6383056640625	369.3119812011719	1693.1318359375	775.2159423828125	183.4479827880859	1673.131469726562	676.938232421875	91.19445037841797	977.7711791992188	585.9497680664062	116.0628356933594	1015.948913574219	952.7313232421875	209.2240142822266	1053.70947265625	903.1941528320312	196.1362609863281	1020.9794921875	623.7578125	127.6652526855469	496.5519714355469	661.04052734375	124.452766418457	638.6272583007812	623.6205444335938	3.677251815795898	34.70139694213867	720.637451171875	60.63698577880859	274.0408935546875	681.7977294921875	223.6277008056641	42.24217224121094	750.2015991210938	162.6581420898438	36.57100677490234	801.7605590820312	129.4939422607422	35.99726867675781	688.2894287109375	-50.97867965698242	40.80286407470703	780.4739379882812	283.8298950195312	544.2218017578125	922.6376342773438	223.0667114257812	807.0008544921875	957.8794555664062	188.5036315917969	56.45396423339844	950.6368408203125	293.2000732421875	420.9132385253906	915.2197265625	386.7243957519531	87.82010650634766	886.8773803710938	330.2021789550781	69.99545288085938	849.6937255859375	298.941162109375	66.18085479736328	964.168212890625	120.94921875	46.20061874389648	900.36767578125	
